# xmcd
#
# Track frame offsets:
#   150
#   17373
#   36674
#   53197
#   65706
#   82326
#   109475
#   124345
#   138521
#   154083
#   171119
#
# Disc length: 2653 seconds
#
# Revision: 0
# Processed by: cddbd v1.5.2PL0 Copyright (c) Steve Scherf et al.
# Submitted via: uFREEDB ActiveX Control 1.5
#
DISCID=a30a5b0b
DTITLE=Flávio Guimarães e Alamo Leal - Ain't No Strangers Here
DYEAR=1900
DGENRE=Blues
TTITLE0=Up The Line
TTITLE1=Ain't That Loving You Baby
TTITLE2=Shake Your Hips
TTITLE3=If I Should Have Bad Luck
TTITLE4=Don't Ever Let Nobody Drag Your Spirit Down
TTITLE5=Bluesfyin'
TTITLE6=If It Ain't Me
TTITLE7=Brown Black and White
TTITLE8=I Cry For You
TTITLE9=In My Thime Of Dying
TTITLE10=Ain't No Stangers Here
EXTD=
EXTT0=
EXTT1=
EXTT2=
EXTT3=
EXTT4=
EXTT5=
EXTT6=
EXTT7=
EXTT8=
EXTT9=
EXTT10=
PLAYORDER=
